<?xml version="1.0" standalone="no"?>
<!DOCTYPE svg PUBLIC "-//W3C//DTD SVG 20010904//EN"
 "http://www.w3.org/TR/2001/REC-SVG-20010904/DTD/svg10.dtd">
<svg version="1.0" xmlns="http://www.w3.org/2000/svg"
 width="512.000000pt" height="512.000000pt" viewBox="0 0 512.000000 512.000000"
 preserveAspectRatio="xMidYMid meet">
<metadata>
Created by potrace 1.11, written by Peter Selinger 2001-2013
</metadata>
<g transform="translate(0.000000,512.000000) scale(0.100000,-0.100000)"
fill="#000000" stroke="none">
<path d="M2401 4207 c-70 -36 -121 -152 -121 -275 0 -94 22 -165 76 -247 35
-52 39 -65 39 -119 -1 -46 -8 -74 -28 -113 -36 -69 -35 -106 2 -144 41 -41
106 -41 143 -1 69 72 106 207 87 321 -11 68 -26 105 -78 188 -44 69 -46 150
-7 217 45 76 29 153 -36 175 -39 14 -47 14 -77 -2z"/>
<path d="M1756 4068 c-57 -66 -80 -137 -79 -243 0 -102 18 -160 74 -241 27
-40 34 -61 37 -111 4 -54 0 -70 -28 -127 -28 -59 -30 -69 -20 -101 26 -77 110
-97 170 -40 44 42 83 139 88 220 6 100 -11 169 -65 260 -62 104 -67 150 -24
241 35 75 37 93 16 134 -19 37 -43 50 -94 50 -34 0 -44 -6 -75 -42z"/>
<path d="M2972 4081 c-62 -63 -98 -182 -89 -294 6 -68 20 -103 93 -237 34 -62
32 -119 -7 -199 -38 -77 -34 -116 13 -156 68 -57 151 -9 200 114 17 44 22 76
22 151 -1 109 -15 156 -71 239 -31 44 -38 64 -41 115 -3 53 0 68 27 118 35 66
38 93 14 128 -27 39 -45 49 -90 50 -33 0 -48 -6 -71 -29z"/>
<path d="M1380 2957 c-53 -26 -60 -62 -59 -287 0 -113 4 -322 9 -465 7 -240
10 -267 34 -349 56 -187 143 -332 280 -467 l79 -79 -308 0 -308 0 6 -57 c11
-108 99 -237 202 -299 95 -56 75 -55 1166 -52 l1004 3 58 23 c142 58 239 181
262 335 l7 47 -358 0 -359 0 66 59 c36 33 83 82 103 109 l38 49 72 6 c345 29
635 350 636 703 0 129 -63 268 -152 336 -81 61 -137 81 -248 87 l-105 6 -5
123 -5 124 -33 29 -32 29 -1013 0 c-789 0 -1018 -3 -1037 -13z m2259 -508
c111 -24 161 -89 161 -210 0 -186 -111 -363 -282 -448 -86 -44 -91 -42 -68 25
39 112 50 207 50 423 0 114 3 211 7 214 10 10 76 8 132 -4z"/>
</g>
</svg>
